# xmcd CD database file
#
# Track frame offsets:
#	150
#	13387
#	29031
#	39958
#	51890
#	68561
#
# Disc length: 1122 seconds
#
# Revision: 0
# Processed by: cddbd v1.5.1PL0 Copyright (c) Steve Scherf et al.
# Submitted via: CDex 1.51
#
DISCID=4c046006
DTITLE=Splendid - States Of Awake
DYEAR=2004
DGENRE=Rock
TTITLE0=Asleep
TTITLE1=Disappointed
TTITLE2=Tomorrow We'll Wake
TTITLE3=Sleeping
TTITLE4=You Only Tell Me You Love Me When You're Drunk
TTITLE5=Disappointed (Machines Translation Mix)
EXTD=YEAR: 2004
EXTT0=
EXTT1=
EXTT2=
EXTT3=
EXTT4=
EXTT5=
PLAYORDER=
